<svg width="11" height="14" viewBox="0 0 11 14" fill="none" xmlns="http://www.w3.org/2000/svg">
<path d="M10.2842 11.057V9.59635L6.21522 4.39738V4.06672C6.21522 3.25177 5.85004 0 5.14209 0C4.43414 0 4.06896 3.25181 4.06896 4.06672V4.44326L4.06543 4.39461L0 9.59635V11.057L4.06896 8.7961V10.3988L2.19098 11.8171V12.5325H3.66653V12.9349C3.66653 13.1325 3.8267 13.2927 4.02424 13.2927C4.22179 13.2927 4.38195 13.1325 4.38195 12.9349V12.5325H5.90223V12.9349C5.90223 13.1325 6.06239 13.2927 6.25994 13.2927C6.45748 13.2927 6.61765 13.1325 6.61765 12.9349V12.5325H8.0932V11.8171L6.21522 10.3936V8.79713L10.2842 11.057Z" fill="white"/>
</svg>
