<svg width="10" height="10" viewBox="0 0 10 10" fill="none" xmlns="http://www.w3.org/2000/svg">
<path d="M8.48291 2.60156C8.44269 2.55848 8.38701 2.53314 8.32811 2.53112C8.26921 2.52909 8.21192 2.55055 8.16884 2.59077C8.12575 2.63098 8.10041 2.68667 8.09839 2.74557C8.09636 2.80447 8.11782 2.86176 8.15804 2.90484L8.67612 3.45988V4.58429C8.67612 4.70709 8.71282 4.82708 8.78152 4.92887C8.85021 5.03066 8.94776 5.10959 9.06164 5.15553L9.55555 5.35479V8.81917C9.55531 9.01432 9.47762 9.2014 9.33955 9.33931C9.20147 9.47722 9.0143 9.55468 8.81914 9.55468C8.62399 9.55468 8.43682 9.47722 8.29874 9.33931C8.16067 9.2014 8.08297 9.01432 8.08274 8.81917V6.72103C8.08238 6.4114 7.95922 6.11456 7.74028 5.89562C7.52134 5.67668 7.2245 5.55353 6.91488 5.55317H6.31915V1.78961C6.31915 1.76014 6.30745 1.73188 6.28661 1.71104C6.26577 1.6902 6.23751 1.67849 6.20804 1.67849H0.791965C0.762497 1.67849 0.734235 1.6902 0.713398 1.71104C0.692561 1.73188 0.680854 1.76014 0.680854 1.78961V9.27896H0.0904266C0.0664441 9.27896 0.0434439 9.28848 0.0264857 9.30544C0.00952748 9.3224 2.94678e-07 9.3454 0 9.36938V9.90957C2.94678e-07 9.93355 0.00952748 9.95655 0.0264857 9.97351C0.0434439 9.99047 0.0664441 10 0.0904266 10H6.90957C6.93355 10 6.95655 9.99047 6.97351 9.97351C6.99047 9.95655 7 9.93355 7 9.90957V9.36938C7 9.3454 6.99047 9.3224 6.97351 9.30544C6.95655 9.28848 6.93355 9.27896 6.90957 9.27896H6.31915V5.99761H6.91488C7.10667 5.99784 7.29054 6.07413 7.42616 6.20974C7.56178 6.34536 7.63807 6.52923 7.63829 6.72103V8.81917C7.63859 9.13216 7.76314 9.43222 7.98456 9.65342C8.20598 9.87463 8.50616 9.99888 8.81914 9.99888C9.13213 9.99888 9.43231 9.87463 9.65373 9.65342C9.87515 9.43222 9.99969 9.13216 10 8.81917V4.7883C10.0005 4.42741 9.86349 4.07988 9.61686 3.81641L8.48291 2.60156ZM1.23644 2.47993C1.23643 2.46068 1.24022 2.44161 1.24759 2.42383C1.25496 2.40604 1.26575 2.38988 1.27937 2.37627C1.29298 2.36266 1.30914 2.35186 1.32692 2.34449C1.34471 2.33712 1.36377 2.33333 1.38302 2.33333H5.61704C5.63629 2.33333 5.65535 2.33712 5.67314 2.34449C5.69092 2.35186 5.70708 2.36266 5.72069 2.37627C5.73431 2.38988 5.7451 2.40604 5.75247 2.42383C5.75983 2.44161 5.76362 2.46068 5.76362 2.47993V4.49881C5.76362 4.53768 5.74818 4.57497 5.72069 4.60246C5.6932 4.62995 5.65591 4.6454 5.61704 4.6454H1.38302C1.34414 4.6454 1.30686 4.62995 1.27937 4.60246C1.25188 4.57497 1.23644 4.53768 1.23644 4.49881V2.47993ZM3.49432 8.4527C3.30202 8.45102 3.11817 8.37345 2.98278 8.23687C2.84739 8.1003 2.77143 7.91577 2.77143 7.72346C2.77143 7.1644 3.25831 6.84582 3.4508 6.22951C3.45408 6.21887 3.46068 6.20955 3.46963 6.20292C3.47858 6.19629 3.48942 6.1927 3.50056 6.19267C3.5117 6.19265 3.52255 6.19618 3.53154 6.20277C3.54053 6.20935 3.54717 6.21864 3.5505 6.22927C3.72816 6.79842 4.15692 7.11367 4.22169 7.59871C4.23752 7.70385 4.2306 7.81116 4.20141 7.9134C4.17223 8.01564 4.12145 8.11043 4.05251 8.19137C3.98357 8.27231 3.89807 8.33752 3.80177 8.3826C3.70548 8.42769 3.60064 8.45159 3.49432 8.4527H3.49432ZM0.170214 1.01182V0.111111C0.170214 0.0816426 0.181921 0.0533811 0.202758 0.0325437C0.223595 0.0117063 0.251857 0 0.281325 0H6.71867C6.74814 0 6.7764 0.0117063 6.79724 0.0325437C6.81808 0.0533811 6.82979 0.0816426 6.82979 0.111111V1.01182C6.82979 1.04129 6.81808 1.06955 6.79724 1.09039C6.7764 1.11122 6.74814 1.12293 6.71867 1.12293H0.281324C0.251856 1.12293 0.223594 1.11122 0.202757 1.09039C0.18192 1.06955 0.170213 1.04129 0.170213 1.01182H0.170214Z" fill="white"/>
</svg>
