<svg width="34" height="40" viewBox="0 0 34 40" fill="none" xmlns="http://www.w3.org/2000/svg">
<path d="M32.5673 18.9773C32.0369 18.447 31.3932 18.182 30.6353 18.182H29.7267V12.7271C29.7267 9.24234 28.477 6.25018 25.9769 3.75017C23.477 1.25006 20.4852 0 16.9999 0C13.5147 0 10.5222 1.25006 8.0225 3.75007C5.52239 6.25018 4.27273 9.24224 4.27273 12.7271V18.182H3.36377C2.60646 18.182 1.96237 18.447 1.43202 18.9773C0.901673 19.5073 0.636597 20.1513 0.636597 20.9094V37.2728C0.636597 38.0301 0.901772 38.6744 1.43202 39.2049C1.96237 39.7347 2.60646 40 3.36377 40H30.636C31.3939 40 32.0375 39.735 32.568 39.2049C33.0979 38.6744 33.3634 38.0301 33.3634 37.2728V20.9091C33.3638 20.1516 33.0979 19.5077 32.5673 18.9773ZM24.2724 18.182H9.72729V12.7271C9.72729 10.7197 10.4376 9.00552 11.858 7.58531C13.2786 6.16491 14.9925 5.45485 17.0002 5.45485C19.008 5.45485 20.7215 6.16481 22.1422 7.58531C23.5622 9.00542 24.2724 10.7197 24.2724 12.7271V18.182Z" fill="white"/>
</svg>
