<svg width="16" height="16" viewBox="0 0 16 16" fill="none" xmlns="http://www.w3.org/2000/svg">
<g clip-path="url(#clip0_169_1114)">
<path d="M13.6562 8.9375C13.2722 8.9375 12.9148 9.03918 12.5946 9.20361L11.9611 8.45068C12.2419 8.28467 12.5458 8.15698 12.8669 8.08508C13.1288 8.02612 13.3883 8.00452 13.6588 8.00049C14.0082 8.00317 14.3519 7.86536 14.6091 7.61047C14.8774 7.34497 15.0312 6.97559 15.0312 6.53882C15.0312 4.13806 13.0088 2.375 10.8734 2.375H10.3438C10.0847 2.375 9.875 2.58472 9.875 2.84375C9.875 3.10278 10.0847 3.3125 10.3438 3.3125H10.8734C11.0131 3.3125 11.1462 3.33655 11.2812 3.35388V4.25964C11.009 4.2843 10.7527 4.36853 10.5101 4.48145C10.5071 4.47791 10.5032 4.47559 10.5002 4.47205C10.1155 4.65198 9.78381 4.93335 9.54358 5.2937L8.47656 6.89404C8.40332 7.00342 8.28796 7.07715 8.15747 7.09729C7.2085 7.24316 6.38586 7.84814 5.95386 8.73157C6.35425 9.32996 6.59375 10.0428 6.59375 10.8125H5.625C5.625 9.2616 4.3634 8 2.8125 8C1.2616 8 0 9.2616 0 10.8125C0 12.3634 1.2616 13.625 2.8125 13.625C4.03308 13.625 5.06396 12.8389 5.45227 11.75H9.875C10.134 11.75 10.3438 11.5403 10.3438 11.2812C10.3438 11.0208 10.3749 10.7548 10.4358 10.4912C10.5635 9.94385 10.8481 9.44568 11.2302 9.0387L11.8629 9.79053C11.5244 10.1969 11.3125 10.7123 11.3125 11.2812C11.3125 12.5735 12.364 13.625 13.6562 13.625C14.9485 13.625 16 12.5735 16 11.2812C16 9.98901 14.9485 8.9375 13.6562 8.9375ZM2.8125 12.6875C1.77844 12.6875 0.9375 11.8466 0.9375 10.8125C0.9375 9.77844 1.77844 8.9375 2.8125 8.9375C3.84656 8.9375 4.6875 9.77844 4.6875 10.8125H3.28125C3.02258 10.8125 2.8125 10.6024 2.8125 10.3438C2.8125 10.0847 2.60278 9.875 2.34375 9.875C2.08472 9.875 1.875 10.0847 1.875 10.3438C1.875 11.1191 2.50586 11.75 3.28125 11.75H4.42676C4.10156 12.3077 3.50354 12.6875 2.8125 12.6875ZM13.6562 12.6875C12.8809 12.6875 12.25 12.0566 12.25 11.2812C12.25 11.0096 12.3309 10.7581 12.4648 10.5427L13.29 11.5742C13.453 11.7775 13.7482 11.8081 13.9492 11.6475C14.1511 11.4854 14.1841 11.1907 14.0225 10.9883L13.1982 9.95801C13.3425 9.90784 13.495 9.875 13.6562 9.875C14.4316 9.875 15.0625 10.5059 15.0625 11.2812C15.0625 12.0566 14.4316 12.6875 13.6562 12.6875Z" fill="white"/>
<path d="M7.96045 5.97839L8.76355 4.77368C9.02026 4.38843 9.35693 4.07544 9.73938 3.8324C9.22498 3.50757 8.63196 3.3125 8 3.3125C6.89246 3.3125 5.86938 3.87708 5.26721 4.78247L6.01697 5.23242C6.61926 5.59375 7.27881 5.83569 7.96045 5.97839Z" fill="white"/>
<path d="M5.53455 6.03613L2.52649 4.25H0.46875C0.209717 4.25 0 4.45972 0 4.71875C0 6.01099 1.05151 7.0625 2.34375 7.0625C3.28137 7.0625 4.25403 7.08289 5.29614 7.98877C5.30017 7.98132 5.30017 7.9729 5.30469 7.9657C5.66833 7.38098 6.18176 6.92761 6.77039 6.60901C6.34424 6.45312 5.927 6.27148 5.53455 6.03613Z" fill="white"/>
</g>
<defs>
<clipPath id="clip0_169_1114">
<rect width="16" height="16" fill="white"/>
</clipPath>
</defs>
</svg>
