<svg width="23" height="11" viewBox="0 0 23 11" fill="none" xmlns="http://www.w3.org/2000/svg">
<mask id="mask0_5_138" style="mask-type:alpha" maskUnits="userSpaceOnUse" x="0" y="0" width="23" height="9">
<path d="M16.2912 2.9829C16.2912 2.9829 13.0789 0 11.2432 0H7.11307C3.67126 0 0 2.9829 0 3.90072V8.03112L1.49306 8.45744C1.5105 6.88844 2.78672 5.62162 4.35962 5.62162C5.94355 5.62162 7.2278 6.90588 7.2278 8.4898H15.2587C15.2587 6.90588 16.5429 5.62162 18.1269 5.62162C19.6998 5.62162 20.9758 6.88844 20.9934 8.45744L22.4865 8.03089V5.5069C22.4865 4.58908 20.1919 3.44181 16.2912 2.9829ZM8.26034 3.19652L2.65042 3.00309C3.80274 2.20574 5.51057 1.37672 7.11307 1.37672H8.26034V3.19652ZM9.63707 3.24402V1.37672H11.2432C11.8979 1.37672 13.4208 2.35167 14.6997 3.41863L9.63707 3.24402Z" fill="white"/>
</mask>
<g mask="url(#mask0_5_138)">
<path d="M16.2912 2.9829C16.2912 2.9829 13.0789 0 11.2432 0H7.11307C3.67126 0 0 2.9829 0 3.90072V8.03112L1.49306 8.45744C1.5105 6.88844 2.78672 5.62162 4.35962 5.62162C5.94355 5.62162 7.2278 6.90588 7.2278 8.4898H15.2587C15.2587 6.90588 16.5429 5.62162 18.1269 5.62162C19.6998 5.62162 20.9758 6.88844 20.9934 8.45744L22.4865 8.03089V5.5069C22.4865 4.58908 20.1919 3.44181 16.2912 2.9829ZM8.26034 3.19652L2.65042 3.00309C3.80274 2.20574 5.51057 1.37672 7.11307 1.37672H8.26034V3.19652ZM9.63707 3.24402V1.37672H11.2432C11.8979 1.37672 13.4208 2.35167 14.6997 3.41863L9.63707 3.24402Z" fill="white"/>
<rect width="7.49549" height="10.3063" fill="#A1A1A1"/>
</g>
<path d="M4.35984 10.44C5.437 10.44 6.3102 9.56682 6.3102 8.48967C6.3102 7.41251 5.437 6.53931 4.35984 6.53931C3.28269 6.53931 2.40948 7.41251 2.40948 8.48967C2.40948 9.56682 3.28269 10.44 4.35984 10.44Z" fill="#A1A1A1"/>
<path d="M18.1271 10.44C19.2043 10.44 20.0775 9.56682 20.0775 8.48967C20.0775 7.41251 19.2043 6.53931 18.1271 6.53931C17.05 6.53931 16.1768 7.41251 16.1768 8.48967C16.1768 9.56682 17.05 10.44 18.1271 10.44Z" fill="white"/>
</svg>
