<svg width="18" height="18" viewBox="0 0 18 18" fill="none" xmlns="http://www.w3.org/2000/svg">
<g clip-path="url(#clip0_169_1124)">
<path d="M14.6484 11.0507C13.3819 11.0507 12.3516 12.0811 12.3516 13.3475C12.3516 14.614 13.3819 15.6444 14.6484 15.6444C15.9149 15.6444 16.9453 14.614 16.9453 13.3475C16.9453 12.0811 15.9149 11.0507 14.6484 11.0507Z" fill="white"/>
<path d="M3.35159 11.0507C2.08508 11.0507 1.05469 12.0811 1.05469 13.3475C1.05469 14.614 2.08508 15.6444 3.35159 15.6444C4.61802 15.6444 5.64834 14.614 5.64834 13.3475C5.64834 12.0811 4.61802 11.0507 3.35159 11.0507Z" fill="white"/>
<path d="M6.70304 13.3475H11.2969C11.2969 12.9088 11.3821 12.4897 11.5361 12.1053H6.46387C6.61782 12.4897 6.70304 12.9088 6.70304 13.3475Z" fill="white"/>
<path d="M17.7543 7.2532L10.1288 2.43711C10.0445 2.38388 9.94687 2.35565 9.84717 2.35565H8.71756C8.42629 2.35565 8.19022 2.59176 8.19022 2.883C8.19022 3.17423 8.42629 3.41034 8.71756 3.41034H9.69459L11.2915 4.4189L8.79709 7.14L7.89923 7.02029V11.0507H12.2101C12.8216 10.4018 13.6884 9.99598 14.6483 9.99598C15.5114 9.99598 16.2991 10.3239 16.8939 10.8616C17.5473 10.5493 18 9.88236 18 9.11117V7.69905C18 7.51814 17.9072 7.34981 17.7543 7.2532Z" fill="white"/>
<path d="M6.84453 6.87964L1.9967 6.23325C1.9125 6.22204 1.82749 6.21631 1.744 6.21631C0.766019 6.21631 0 6.99164 0 7.98143V9.11114C0 9.88233 0.452707 10.5493 1.10605 10.8615C1.70075 10.3238 2.48861 9.99592 3.35159 9.99592C4.31153 9.99592 5.17834 10.4017 5.78985 11.0506H6.84453V6.87964Z" fill="white"/>
</g>
<defs>
<clipPath id="clip0_169_1124">
<rect width="18" height="18" fill="white"/>
</clipPath>
</defs>
</svg>
