<svg width="14" height="14" viewBox="0 0 14 14" fill="none" xmlns="http://www.w3.org/2000/svg">
<mask id="mask0_169_934" style="mask-type:alpha" maskUnits="userSpaceOnUse" x="0" y="0" width="14" height="14">
<path d="M11.8761 3.64219C11.8198 3.58187 11.7418 3.5464 11.6594 3.54356C11.5769 3.54073 11.4967 3.57077 11.4364 3.62707C11.3761 3.68338 11.3406 3.76133 11.3377 3.84379C11.3349 3.92625 11.365 4.00646 11.4213 4.06677L12.1466 4.84383V6.41801C12.1466 6.58992 12.198 6.75792 12.2941 6.90042C12.3903 7.04292 12.5269 7.15342 12.6863 7.21774L13.3778 7.49671V12.3468C13.3774 12.6201 13.2687 12.882 13.0754 13.075C12.8821 13.2681 12.62 13.3766 12.3468 13.3766C12.0736 13.3766 11.8116 13.2681 11.6182 13.075C11.4249 12.882 11.3162 12.6201 11.3158 12.3468V9.40944C11.3153 8.97596 11.1429 8.56039 10.8364 8.25387C10.5299 7.94736 10.1143 7.77494 9.68083 7.77444H8.84681V2.50545C8.84681 2.46419 8.83043 2.42463 8.80125 2.39545C8.77208 2.36628 8.73251 2.34989 8.69126 2.34989H1.10875C1.0675 2.34989 1.02793 2.36628 0.998757 2.39545C0.969585 2.42463 0.953196 2.46419 0.953196 2.50545V12.9905H0.126597C0.0930217 12.9905 0.0608215 13.0039 0.03708 13.0276C0.0133385 13.0514 4.1255e-07 13.0836 0 13.1171V13.8734C4.1255e-07 13.907 0.0133385 13.9392 0.03708 13.9629C0.0608215 13.9867 0.0930217 14 0.126597 14H9.6734C9.70698 14 9.73918 13.9867 9.76292 13.9629C9.78666 13.9392 9.8 13.907 9.8 13.8734V13.1171C9.8 13.0836 9.78666 13.0514 9.76292 13.0276C9.73918 13.0039 9.70698 12.9905 9.6734 12.9905H8.84681V8.39666H9.68083C9.94934 8.39697 10.2068 8.50378 10.3966 8.69364C10.5865 8.88351 10.6933 9.14093 10.6936 9.40944V12.3468C10.694 12.785 10.8684 13.2051 11.1784 13.5148C11.4884 13.8245 11.9086 13.9984 12.3468 13.9984C12.785 13.9984 13.2052 13.8245 13.5152 13.5148C13.8252 13.2051 13.9996 12.785 14 12.3468V6.70362C14.0007 6.19837 13.8089 5.71183 13.4636 5.34297L11.8761 3.64219ZM1.73101 3.4719C1.73101 3.44495 1.73632 3.41826 1.74663 3.39336C1.75694 3.36846 1.77206 3.34583 1.79111 3.32678C1.81017 3.30772 1.83279 3.2926 1.85769 3.28229C1.88259 3.27197 1.90928 3.26667 1.93623 3.26667H7.86385C7.8908 3.26667 7.91749 3.27197 7.94239 3.28229C7.96729 3.2926 7.98991 3.30772 8.00897 3.32678C8.02803 3.34583 8.04314 3.36846 8.05346 3.39336C8.06377 3.41826 8.06908 3.44495 8.06907 3.4719V6.29833C8.06907 6.35276 8.04745 6.40496 8.00896 6.44344C7.97048 6.48193 7.91828 6.50355 7.86385 6.50356H1.93623C1.8818 6.50355 1.82961 6.48193 1.79112 6.44344C1.75264 6.40496 1.73101 6.35276 1.73101 6.29833V3.4719ZM4.89206 11.8338C4.62283 11.8314 4.36543 11.7228 4.17589 11.5316C3.98634 11.3404 3.88 11.0821 3.88 10.8128C3.88 10.0302 4.56164 9.58416 4.83112 8.72132C4.83571 8.70641 4.84495 8.69337 4.85748 8.68409C4.87002 8.67481 4.88519 8.66978 4.90078 8.66974C4.91638 8.66971 4.93158 8.67466 4.94416 8.68388C4.95674 8.69309 4.96604 8.70609 4.9707 8.72098C5.21942 9.51779 5.81969 9.95914 5.91037 10.6382C5.93252 10.7854 5.92284 10.9356 5.88198 11.0788C5.84112 11.2219 5.77003 11.3546 5.67351 11.4679C5.577 11.5812 5.45729 11.6725 5.32248 11.7356C5.18768 11.7988 5.0409 11.8322 4.89205 11.8338H4.89206ZM0.2383 1.41655V0.155556C0.2383 0.1143 0.254689 0.0747335 0.283861 0.0455612C0.313034 0.0163889 0.3526 0 0.393856 0H9.40615C9.4474 0 9.48697 0.0163889 9.51614 0.0455612C9.54531 0.0747335 9.5617 0.1143 9.5617 0.155556V1.41655C9.5617 1.4578 9.54531 1.49737 9.51614 1.52654C9.48697 1.55571 9.4474 1.5721 9.40615 1.5721H0.393854C0.352598 1.5721 0.313032 1.55571 0.28386 1.52654C0.254688 1.49737 0.238299 1.4578 0.238299 1.41655H0.2383Z" fill="white"/>
</mask>
<g mask="url(#mask0_169_934)">
<rect x="-1" y="-1" width="15" height="15" fill="#8C8DA0"/>
</g>
</svg>
